HIERARCHY
ROOT hip
{
	OFFSET 0.000000 0.000000 0.000000 
	CHANNELS 6 Xposition Yposition Zposition Xrotation Zrotation Yrotation
	JOINT abdomen
	{
		OFFSET 0.000000 3.402643 0.000000 
		CHANNELS 3 Xrotation Zrotation Yrotation
		JOINT chest
		{
			OFFSET 0.000000 8.438565 -0.680529 
			CHANNELS 3 Xrotation Zrotation Yrotation
			JOINT neck
			{
				OFFSET 0.000000 10.207942 -0.272212 
				CHANNELS 3 Xrotation Zrotation Yrotation
				JOINT head
				{
					OFFSET 0.000000 3.130431 0.000000 
					CHANNELS 3 Xrotation Zrotation Yrotation
					End Site
					{
						OFFSET 0.000000 3.130435 0.000000 
					}
				}
			}
			JOINT lCollar
			{
				OFFSET 3.470700 6.669187 -0.816635 
				CHANNELS 3 Yrotation Zrotation Xrotation
				JOINT lShldr
				{
					OFFSET 3.198488 0.000000 0.000000 
					CHANNELS 3 Zrotation Yrotation Xrotation
					JOINT lForeArm
					{
						OFFSET 10.139888 0.000000 0.000000 
						CHANNELS 3 Yrotation Zrotation Xrotation
						JOINT lHand
						{
							OFFSET 8.370511 0.000000 0.000000 
							CHANNELS 3 Zrotation Yrotation Xrotation
							End Site
							{
								OFFSET 4.083176 0.000000 0.000000 
							}
						}
					}
				}
			}
			JOINT rCollar
			{
				OFFSET -3.470700 6.669187 -0.816635 
				CHANNELS 3 Yrotation Zrotation Xrotation
				JOINT rShldr
				{
					OFFSET -3.198488 0.000000 0.000000 
					CHANNELS 3 Zrotation Yrotation Xrotation
					JOINT rForeArm
					{
						OFFSET -10.139888 0.000000 0.000000 
						CHANNELS 3 Yrotation Zrotation Xrotation
						JOINT rHand
						{
							OFFSET -8.370511 0.000000 0.000000 
							CHANNELS 3 Zrotation Yrotation Xrotation
							End Site
							{
								OFFSET -4.083176 0.000000 0.000000 
							}
						}
					}
				}
			}
		}
	}
	JOINT lThigh
	{
		OFFSET 5.308129 -1.633274 1.361059 
		CHANNELS 3 Xrotation Zrotation Yrotation
		JOINT lShin
		{
			OFFSET -2.041588 -20.007561 0.000000 
			CHANNELS 3 Xrotation Zrotation Yrotation
			JOINT lFoot
			{
				OFFSET 0.000000 -19.190928 -1.224953 
				CHANNELS 3 Xrotation Yrotation Zrotation
				End Site
				{
					OFFSET 0.000000 -2.449906 4.627600 
				}
			}
		}
	}
	JOINT rThigh
	{
		OFFSET -5.308129 -1.633274 1.361059 
		CHANNELS 3 Xrotation Zrotation Yrotation
		JOINT rShin
		{
			OFFSET 2.041588 -20.007561 0.000000 
			CHANNELS 3 Xrotation Zrotation Yrotation
			JOINT rFoot
			{
				OFFSET 0.000000 -19.190928 -1.224953 
				CHANNELS 3 Xrotation Yrotation Zrotation
				End Site
				{
					OFFSET 0.000000 -2.449906 4.627600 
				}
			}
		}
	}
}
MOTION
Frames: 16
Frame Time: 0.016667
-0.317225 43.658688 -0.809866 1.338280 -1.376580 -2.522620 -23.166901 0.630695 1.459780 16.884701 0.419060 0.783654 18.701799 1.246500 -2.580830 13.093000 4.378930 -0.773346 2.000000 -2.000000 0.000000 88.628899 166.216995 -2.532580 37.451599 -0.323384 0.083194 0.044792 0.007162 -134.363007 -2.000000 2.000000 0.000000 -90.021202 -160.466995 -3.320470 -42.021900 0.316414 0.091523 -0.055004 -0.004163 -131.940994 -5.995053 1.638839 -8.590471 22.934710 3.704745 1.555493 -24.167498 13.979738 6.571220 2.844291 -0.491587 -0.349304 3.672751 -4.269293 -0.145304 -15.014057 -7.428559 -2.373633 
-0.317399 43.659721 -0.814381 1.338270 -1.366810 -2.512620 -23.157000 0.612743 1.467470 16.894400 0.399573 0.784973 18.681700 1.256970 -2.569650 13.083200 4.379070 -0.764326 2.000000 -2.000000 0.000000 88.648399 166.216995 -2.542340 37.431999 -0.323412 0.083157 0.044799 0.007298 -134.313995 -2.000000 2.000000 0.000000 -90.011398 -160.457001 -3.300960 -42.031700 0.316399 0.091541 -0.054994 -0.004054 -131.979996 -6.001159 1.627089 -8.629401 22.944227 3.707188 1.555903 -24.167074 13.998975 6.583800 2.850827 -0.512953 -0.360507 3.682263 -4.273995 -0.145383 -15.027163 -7.424372 -2.371946 
-0.316206 43.661003 -0.817139 1.338260 -1.347290 -2.512160 -23.157000 0.603764 1.471310 16.914000 0.389836 0.785730 18.656900 1.273710 -2.327800 13.064500 4.437210 -0.649213 2.000000 -2.000000 0.000000 88.687500 166.186996 -2.464280 37.431999 -0.323412 0.083157 0.044790 0.007107 -134.382996 -2.000000 2.000000 0.000000 -89.991898 -160.457001 -3.320490 -42.021900 0.316414 0.091523 -0.054989 -0.004000 -132.000000 -5.993867 1.610196 -8.620079 22.952229 3.716922 1.548012 -24.166147 14.016887 6.550184 2.847958 -0.524932 -0.351950 3.667774 -4.273564 -0.145013 -15.003634 -7.452173 -2.374659 
-0.315013 43.662430 -0.819895 1.348020 -1.337520 -2.502390 -23.147200 0.594788 1.475160 16.923700 0.380094 0.786415 18.621799 1.291470 -2.077070 13.045900 4.505000 -0.532614 2.000000 -2.000000 0.000000 88.726501 166.147995 -2.376480 37.431999 -0.323412 0.083157 0.044780 0.006889 -134.460999 -2.000000 2.000000 0.000000 -89.982101 -160.447006 -3.330280 -42.002399 0.316445 0.091489 -0.054985 -0.003945 -132.018997 -6.005721 1.600908 -8.619340 22.884485 3.707170 1.546581 -24.079357 14.005105 6.539384 2.817720 -0.530106 -0.364272 3.675302 -4.267096 -0.145081 -14.982168 -7.443959 -2.390797 
-0.315551 43.663834 -0.822268 1.357780 -1.317990 -2.511920 -23.147100 0.585808 1.479000 16.943300 0.389849 0.785929 18.559999 1.240930 -2.052130 13.016000 4.476490 -0.519950 2.000000 -2.000000 0.000000 88.872902 166.059006 -1.956770 37.500401 -0.323313 0.083287 0.044738 0.005823 -134.841995 -2.000000 2.000000 0.000000 -89.982101 -160.447006 -3.330280 -42.002399 0.316445 0.091489 -0.054980 -0.003891 -132.039001 -6.012953 1.569982 -8.628870 22.884264 3.708620 1.546864 -24.099833 14.068526 6.572474 2.803423 -0.548877 -0.357086 3.675028 -4.267333 -0.145105 -14.994152 -7.470199 -2.383608 
-0.316087 43.665249 -0.824641 1.367540 -1.298460 -2.511680 -23.137300 0.589238 1.488150 16.962799 0.389857 0.795828 18.498199 1.199600 -2.023980 12.986400 4.457620 -0.495974 2.000000 -2.000000 0.000000 89.009499 165.979996 -1.537030 37.578499 -0.323199 0.083434 0.044703 0.004757 -135.223007 -2.000000 2.000000 0.000000 -89.972298 -160.447006 -3.330280 -42.012100 0.316430 0.091506 -0.054975 -0.003836 -132.057999 -6.006807 1.555352 -8.639297 22.865980 3.698819 1.545104 -24.109011 14.104942 6.609223 2.799201 -0.569085 -0.359080 3.692594 -4.277990 -0.145390 -15.010348 -7.484694 -2.382145 
-0.315584 43.666027 -0.831513 1.367540 -1.298460 -2.521440 -23.156700 0.592662 1.497280 16.923700 0.409332 0.794324 18.528200 1.225890 -2.021930 12.996500 4.476770 -0.501943 2.000000 -2.000000 0.000000 88.853302 166.011002 -2.054540 37.539501 -0.323256 0.083360 0.044749 0.006124 -134.733994 -2.000000 2.000000 0.000000 -89.972298 -160.427994 -3.379150 -41.992599 0.316461 0.091472 -0.054992 -0.004027 -131.990005 -6.017131 1.548865 -8.628870 22.865808 3.699929 1.545318 -24.082003 14.093084 6.596468 2.787610 -0.576627 -0.360530 3.693701 -4.277035 -0.145293 -15.010741 -7.487684 -2.372742 
-0.315079 43.666798 -0.838387 1.367530 -1.288700 -2.521210 -23.166401 0.605066 1.502580 16.884701 0.419060 0.803186 18.557699 1.252830 -2.010120 13.016300 4.495780 -0.497375 2.000000 -2.000000 0.000000 88.697197 166.050995 -2.581790 37.500401 -0.323313 0.083287 0.044807 0.007490 -134.246002 -2.000000 2.000000 0.000000 -89.962502 -160.399002 -3.437820 -41.973099 0.316492 0.091437 -0.055008 -0.004218 -131.921997 -6.026610 1.546639 -8.618499 22.875935 3.698413 1.544954 -24.051195 14.073009 6.567363 2.764622 -0.585335 -0.343200 3.686303 -4.282910 -0.135424 -14.994433 -7.497860 -2.376526 
-0.314788 43.666027 -0.843113 1.367550 -1.327750 -2.522150 -23.156700 0.614047 1.498740 16.904200 0.419069 0.803328 18.587500 1.251330 -2.017350 13.036100 4.505140 -0.504084 2.000000 -2.000000 0.000000 88.667900 166.110001 -2.669540 37.471100 -0.323355 0.083231 0.044818 0.007708 -134.167999 -2.000000 2.000000 0.000000 -89.982101 -160.408005 -3.418260 -41.982800 0.316476 0.091454 -0.055006 -0.004190 -131.932007 -6.050500 1.580799 -8.626512 22.894285 3.707769 1.546630 -24.051752 14.049583 6.563490 2.764870 -0.537163 -0.338989 3.684156 -4.272366 -0.145217 -15.006272 -7.471673 -2.374083 
-0.314499 43.665249 -0.847839 1.367580 -1.366800 -2.532850 -23.137300 0.632014 1.491090 16.923700 0.409332 0.804090 18.617300 1.249830 -2.024590 13.055600 4.504860 -0.502550 2.000000 -2.000000 0.000000 88.638702 166.158997 -2.767090 37.431999 -0.323412 0.083157 0.044827 0.007899 -134.100006 -2.000000 2.000000 0.000000 -90.001602 -160.427994 -3.388920 -41.982800 0.316476 0.091454 -0.055006 -0.004190 -131.932007 -6.063175 1.619932 -8.635309 22.923929 3.707967 1.546464 -24.064329 14.047791 6.566017 2.762866 -0.499741 -0.345627 3.668906 -4.258718 -0.125153 -14.997907 -7.459331 -2.388527 
-0.313208 43.665508 -0.852935 1.367570 -1.357040 -2.542380 -23.137100 0.626462 1.504070 16.923700 0.409332 0.804090 18.626200 1.213200 -2.026510 13.065200 4.485430 -0.504843 2.000000 -2.000000 0.000000 88.638702 166.197998 -2.776760 37.393002 -0.323469 0.083083 0.044826 0.007872 -134.108994 -2.000000 2.000000 0.000000 -90.001602 -160.427994 -3.359620 -42.002399 0.316445 0.091489 -0.054992 -0.004027 -131.990005 -6.063774 1.612805 -8.625489 22.915956 3.698025 1.554329 -24.074543 14.045699 6.577562 2.767559 -0.517924 -0.317455 3.655998 -4.257924 -0.144953 -14.989151 -7.458933 -2.376537 
-0.311917 43.665764 -0.858034 1.377330 -1.347270 -2.561910 -23.137100 0.629890 1.513210 16.933500 0.399590 0.814542 18.644199 1.176960 -2.017900 13.065000 4.475780 -0.496608 2.000000 -2.000000 0.000000 88.638702 166.246994 -2.796180 37.344101 -0.323539 0.082990 0.044826 0.007872 -134.108994 -2.000000 2.000000 0.000000 -90.001602 -160.438004 -3.330300 -42.021900 0.316414 0.091523 -0.054982 -0.003918 -132.029007 -6.075789 1.598810 -8.615160 22.944256 3.707025 1.555869 -24.105543 14.055234 6.577075 2.744160 -0.532722 -0.310521 3.653715 -4.259883 -0.145153 -14.957928 -7.476660 -2.383903 
-0.311584 43.666798 -0.862274 1.387100 -1.347260 -2.542610 -23.146900 0.638865 1.509360 16.923700 0.409332 0.813856 18.654100 1.195190 -2.010830 13.065200 4.485430 -0.495078 2.000000 -2.000000 0.000000 88.628899 166.227005 -2.796220 37.344101 -0.323539 0.082990 0.044823 0.007817 -134.128998 -2.000000 2.000000 0.000000 -90.040703 -160.417999 -3.281520 -42.012100 0.316430 0.091506 -0.054971 -0.003782 -132.078003 -6.085073 1.602050 -8.614577 22.925926 3.697495 1.554158 -24.100101 14.068069 6.572237 2.726269 -0.525635 -0.320921 3.632926 -4.251952 -0.145154 -14.930630 -7.479403 -2.404959 
-0.311252 43.667702 -0.866511 1.396880 -1.357020 -2.533310 -23.156799 0.644412 1.496370 16.914000 0.419074 0.803400 18.664000 1.213410 -2.003760 13.065300 4.495070 -0.493547 2.000000 -2.000000 0.000000 88.628899 166.218002 -2.796250 37.334400 -0.323553 0.082972 0.044822 0.007790 -134.139008 -2.000000 2.000000 0.000000 -90.079697 -160.408005 -3.222950 -42.012100 0.316430 0.091506 -0.054961 -0.003673 -132.117004 -6.113423 1.608599 -8.612887 22.932924 3.711165 1.537294 -24.101677 14.102403 6.596817 2.718229 -0.516120 -0.320623 3.633073 -4.251828 -0.145141 -14.907638 -7.505778 -2.406827 
-0.310508 43.666157 -0.868499 1.387090 -1.317970 -2.532130 -23.127300 0.638875 1.509390 16.962799 0.428843 0.812911 18.645100 1.222560 -2.012010 13.065400 4.504720 -0.501783 2.000000 -2.000000 0.000000 88.765602 166.197006 -2.347070 37.383202 -0.323483 0.083064 0.044771 0.006670 -134.539001 -2.000000 2.000000 0.000000 -90.060204 -160.457001 -3.242370 -42.012100 0.316430 0.091506 -0.054964 -0.003700 -132.106995 -6.096638 1.580783 -8.584517 22.924677 3.705705 1.555748 -24.066536 14.044250 6.563508 2.720753 -0.552340 -0.323565 3.648227 -4.251717 -0.144725 -14.918011 -7.510611 -2.399182 
-0.309761 43.664490 -0.870477 1.387070 -1.288680 -2.521650 -23.098000 0.638888 1.509420 17.011600 0.448359 0.812068 18.625700 1.232370 -2.010540 13.055600 4.504860 -0.502550 2.000000 -2.000000 0.000000 88.912003 166.175995 -1.907670 37.431999 -0.323412 0.083157 0.044728 0.005550 -134.938995 -2.000000 2.000000 0.000000 -90.050499 -160.496002 -3.271570 -42.002399 0.316445 0.091489 -0.054966 -0.003727 -132.098007 -6.077877 1.553174 -8.536799 22.886070 3.696784 1.544570 -24.018202 14.029827 6.546125 2.732512 -0.592388 -0.336055 3.660291 -4.267113 -0.144758 -14.958746 -7.499521 -2.385195 
